<svg xmlns="http://www.w3.org/2000/svg" viewBox="0 0 200 200">
  <defs>
    <linearGradient id="assignmentGradient" x1="0%" y1="0%" x2="100%" y2="100%">
      <stop offset="0%" style="stop-color:#059669;stop-opacity:1" />
      <stop offset="100%" style="stop-color:#047857;stop-opacity:1" />
    </linearGradient>
    <linearGradient id="docGradient" x1="0%" y1="0%" x2="100%" y2="100%">
      <stop offset="0%" style="stop-color:#ffffff;stop-opacity:1" />
      <stop offset="100%" style="stop-color:#f3f4f6;stop-opacity:1" />
    </linearGradient>
  </defs>
  
  <!-- Background -->
  <rect width="200" height="200" fill="url(#docGradient)" rx="20"/>
  
  <!-- Main document -->
  <rect x="50" y="30" width="100" height="140" fill="white" rx="8" stroke="#e5e7eb" stroke-width="2"/>
  
  <!-- Document header -->
  <rect x="50" y="30" width="100" height="30" fill="url(#assignmentGradient)" rx="8"/>
  <rect x="50" y="50" width="100" height="10" fill="url(#assignmentGradient)" rx="0 0 8 8"/>
  
  <!-- Assignment lines -->
  <g fill="#d1d5db">
    <rect x="60" y="75" width="80" height="3" rx="1"/>
    <rect x="60" y="85" width="60" height="3" rx="1"/>
    <rect x="60" y="95" width="70" height="3" rx="1"/>
    <rect x="60" y="105" width="50" height="3" rx="1"/>
    <rect x="60" y="115" width="65" height="3" rx="1"/>
    <rect x="60" y="125" width="75" height="3" rx="1"/>
    <rect x="60" y="135" width="40" height="3" rx="1"/>
    <rect x="60" y="145" width="55" height="3" rx="1"/>
  </g>
  
  <!-- Assignment connection lines -->
  <g stroke="#f97316" stroke-width="2" fill="none">
    <path d="M30 100 Q40 95 50 100"/>
    <path d="M150 100 Q160 95 170 100"/>
  </g>
  
  <!-- Driver icon -->
  <g fill="#3b82f6">
    <circle cx="25" cy="95" r="8"/>
    <path d="M15 115 Q15 110 25 110 Q35 110 35 115 L15 115 Z"/>
  </g>
  
  <!-- Vehicle icon -->
  <g fill="#f97316">
    <rect x="165" y="90" width="20" height="12" rx="3"/>
    <circle cx="170" cy="107" r="3"/>
    <circle cx="180" cy="107" r="3"/>
  </g>
  
  <!-- Status indicators -->
  <g>
    <circle cx="140" cy="40" r="4" fill="#059669"/>
    <circle cx="125" cy="40" r="3" fill="#eab308"/>
    <circle cx="110" cy="40" r="3" fill="#dc2626"/>
  </g>
  
  <!-- Decorative elements -->
  <circle cx="185" cy="25" r="6" fill="#f97316" opacity="0.3"/>
  <circle cx="15" cy="25" r="4" fill="#3b82f6" opacity="0.4"/>
  <circle cx="15" cy="175" r="5" fill="#059669" opacity="0.3"/>
</svg>
