<!-- Assignment Management Icon -->
<svg width="100" height="100" viewBox="0 0 100 100" xmlns="http://www.w3.org/2000/svg">
    <defs>
        <linearGradient id="assignmentGradient" x1="0%" y1="0%" x2="100%" y2="100%">
            <stop offset="0%" style="stop-color:#f97316;stop-opacity:1" />
            <stop offset="100%" style="stop-color:#ea580c;stop-opacity:1" />
        </linearGradient>
    </defs>
    
    <rect x="10" y="10" width="80" height="80" rx="15" fill="url(#assignmentGradient)"/>
    
    <!-- Clipboard -->
    <rect x="25" y="20" width="50" height="65" rx="5" fill="white"/>
    <rect x="42" y="15" width="16" height="8" rx="4" fill="#f97316"/>
    
    <!-- Checklist items -->
    <rect x="30" y="30" width="4" height="4" rx="1" fill="#059669"/>
    <rect x="37" y="31" width="25" height="2" fill="#6b7280"/>
    
    <rect x="30" y="40" width="4" height="4" rx="1" fill="#059669"/>
    <rect x="37" y="41" width="20" height="2" fill="#6b7280"/>
    
    <rect x="30" y="50" width="4" height="4" rx="1" fill="#d1d5db"/>
    <rect x="37" y="51" width="30" height="2" fill="#6b7280"/>
    
    <rect x="30" y="60" width="4" height="4" rx="1" fill="#d1d5db"/>
    <rect x="37" y="61" width="15" height="2" fill="#6b7280"/>
    
    <!-- Check mark -->
    <path d="M32 32 L33 33 L36 30" stroke="white" stroke-width="1" fill="none"/>
    <path d="M32 42 L33 43 L36 40" stroke="white" stroke-width="1" fill="none"/>
</svg>
