<svg xmlns="http://www.w3.org/2000/svg" viewBox="0 0 200 200">
  <defs>
    <linearGradient id="driversGradient" x1="0%" y1="0%" x2="100%" y2="100%">
      <stop offset="0%" style="stop-color:#3b82f6;stop-opacity:1" />
      <stop offset="100%" style="stop-color:#1e3a8a;stop-opacity:1" />
    </linearGradient>
    <linearGradient id="cardGradient" x1="0%" y1="0%" x2="100%" y2="100%">
      <stop offset="0%" style="stop-color:#ffffff;stop-opacity:1" />
      <stop offset="100%" style="stop-color:#f3f4f6;stop-opacity:1" />
    </linearGradient>
  </defs>
  
  <!-- Background -->
  <rect width="200" height="200" fill="url(#cardGradient)" rx="20"/>
  
  <!-- Main card -->
  <rect x="30" y="40" width="140" height="120" fill="url(#driversGradient)" rx="12" opacity="0.9"/>
  
  <!-- Driver icons -->
  <g fill="white">
    <!-- Driver 1 -->
    <circle cx="65" cy="70" r="12"/>
    <path d="M50 95 Q50 85 65 85 Q80 85 80 95 L50 95 Z"/>
    
    <!-- Driver 2 -->
    <circle cx="135" cy="70" r="12"/>
    <path d="M120 95 Q120 85 135 85 Q150 85 150 95 L120 95 Z"/>
    
    <!-- Driver 3 -->
    <circle cx="65" cy="120" r="12"/>
    <path d="M50 145 Q50 135 65 135 Q80 135 80 145 L50 145 Z"/>
    
    <!-- Driver 4 -->
    <circle cx="135" cy="120" r="12"/>
    <path d="M120 145 Q120 135 135 135 Q150 135 150 145 L120 145 Z"/>
  </g>
  
  <!-- List lines -->
  <g fill="#f97316" opacity="0.8">
    <rect x="20" y="175" width="160" height="4" rx="2"/>
    <rect x="20" y="185" width="120" height="4" rx="2"/>
    <rect x="20" y="195" width="140" height="4" rx="2"/>
  </g>
  
  <!-- Decorative elements -->
  <circle cx="180" cy="30" r="8" fill="#f97316" opacity="0.3"/>
  <circle cx="20" cy="180" r="6" fill="#3b82f6" opacity="0.4"/>
</svg>
