<svg xmlns="http://www.w3.org/2000/svg" viewBox="0 0 200 200">
  <defs>
    <linearGradient id="emptyGradient" x1="0%" y1="0%" x2="100%" y2="100%">
      <stop offset="0%" style="stop-color:#f3f4f6;stop-opacity:1" />
      <stop offset="100%" style="stop-color:#e5e7eb;stop-opacity:1" />
    </linearGradient>
    <linearGradient id="iconGradient" x1="0%" y1="0%" x2="100%" y2="100%">
      <stop offset="0%" style="stop-color:#9ca3af;stop-opacity:1" />
      <stop offset="100%" style="stop-color:#6b7280;stop-opacity:1" />
    </linearGradient>
  </defs>
  
  <!-- Background -->
  <rect width="200" height="200" fill="url(#emptyGradient)" rx="20"/>
  
  <!-- Empty folder -->
  <g fill="url(#iconGradient)">
    <path d="M50 80 L50 150 Q50 160 60 160 L140 160 Q150 160 150 150 L150 90 Q150 80 140 80 L110 80 L100 70 L70 70 Q60 70 60 80 L50 80 Z" opacity="0.6"/>
  </g>
  
  <!-- Dashed lines for empty state -->
  <g stroke="#9ca3af" stroke-width="2" fill="none" stroke-dasharray="5,5" opacity="0.5">
    <circle cx="100" cy="100" r="30"/>
    <path d="M85 100 L115 100"/>
    <path d="M100 85 L100 115"/>
  </g>
  
  <!-- Empty state text elements -->
  <g fill="#9ca3af" opacity="0.4">
    <rect x="70" y="130" width="60" height="3" rx="1"/>
    <rect x="80" y="140" width="40" height="3" rx="1"/>
  </g>
  
  <!-- Decorative dots -->
  <g fill="#d1d5db" opacity="0.6">
    <circle cx="30" cy="40" r="3"/>
    <circle cx="170" cy="40" r="3"/>
    <circle cx="30" cy="160" r="3"/>
    <circle cx="170" cy="160" r="3"/>
  </g>
</svg>
