<svg xmlns="http://www.w3.org/2000/svg" viewBox="0 0 200 200">
  <defs>
    <linearGradient id="formGradient" x1="0%" y1="0%" x2="100%" y2="100%">
      <stop offset="0%" style="stop-color:#3b82f6;stop-opacity:1" />
      <stop offset="100%" style="stop-color:#1e3a8a;stop-opacity:1" />
    </linearGradient>
    <linearGradient id="paperGradient" x1="0%" y1="0%" x2="100%" y2="100%">
      <stop offset="0%" style="stop-color:#ffffff;stop-opacity:1" />
      <stop offset="100%" style="stop-color:#f9fafb;stop-opacity:1" />
    </linearGradient>
  </defs>
  
  <!-- Background -->
  <rect width="200" height="200" fill="url(#paperGradient)" rx="20"/>
  
  <!-- Form paper -->
  <rect x="40" y="20" width="120" height="160" fill="white" rx="12" stroke="#e5e7eb" stroke-width="2"/>
  
  <!-- Form header -->
  <rect x="40" y="20" width="120" height="25" fill="url(#formGradient)" rx="12"/>
  <rect x="40" y="35" width="120" height="10" fill="url(#formGradient)" rx="0 0 12 12"/>
  
  <!-- Form fields -->
  <g fill="#f3f4f6" stroke="#e5e7eb" stroke-width="1">
    <!-- Input fields -->
    <rect x="55" y="65" width="90" height="12" rx="6"/>
    <rect x="55" y="85" width="90" height="12" rx="6"/>
    <rect x="55" y="105" width="90" height="12" rx="6"/>
    <rect x="55" y="125" width="90" height="12" rx="6"/>
    <rect x="55" y="145" width="90" height="12" rx="6"/>
  </g>
  
  <!-- Form labels -->
  <g fill="#6b7280">
    <rect x="55" y="58" width="30" height="3" rx="1"/>
    <rect x="55" y="78" width="25" height="3" rx="1"/>
    <rect x="55" y="98" width="35" height="3" rx="1"/>
    <rect x="55" y="118" width="28" height="3" rx="1"/>
    <rect x="55" y="138" width="32" height="3" rx="1"/>
  </g>
  
  <!-- Submit button -->
  <rect x="55" y="165" width="90" height="12" rx="6" fill="url(#formGradient)"/>
  
  <!-- Pen icon -->
  <g fill="#f97316">
    <path d="M170 30 L180 40 L175 45 L165 35 Z"/>
    <path d="M165 35 L175 45 L170 50 L160 40 Z"/>
    <rect x="160" y="40" width="2" height="15" rx="1" transform="rotate(45 161 47.5)"/>
  </g>
  
  <!-- Decorative elements -->
  <circle cx="25" cy="50" r="4" fill="#3b82f6" opacity="0.3"/>
  <circle cx="175" cy="170" r="5" fill="#f97316" opacity="0.3"/>
  <circle cx="25" cy="150" r="3" fill="#059669" opacity="0.4"/>
</svg>
