<!-- Hero Background SVG -->
<svg width="1920" height="1080" viewBox="0 0 1920 1080" xmlns="http://www.w3.org/2000/svg">
    <defs>
        <linearGradient id="heroGradient" x1="0%" y1="0%" x2="100%" y2="100%">
            <stop offset="0%" style="stop-color:#1e3a8a;stop-opacity:1" />
            <stop offset="50%" style="stop-color:#3b82f6;stop-opacity:1" />
            <stop offset="100%" style="stop-color:#60a5fa;stop-opacity:1" />
        </linearGradient>
        <pattern id="gridPattern" width="100" height="100" patternUnits="userSpaceOnUse">
            <path d="M 100 0 L 0 0 0 100" fill="none" stroke="rgba(255,255,255,0.1)" stroke-width="1"/>
        </pattern>
    </defs>
    
    <rect width="1920" height="1080" fill="url(#heroGradient)"/>
    <rect width="1920" height="1080" fill="url(#gridPattern)"/>
    
    <!-- Decorative elements -->
    <circle cx="200" cy="200" r="100" fill="rgba(255,255,255,0.1)"/>
    <circle cx="1720" cy="880" r="80" fill="rgba(255,255,255,0.08)"/>
    <circle cx="1600" cy="200" r="120" fill="rgba(255,255,255,0.06)"/>
    <circle cx="300" cy="800" r="60" fill="rgba(255,255,255,0.12)"/>
    
    <!-- Vehicle silhouettes -->
    <g transform="translate(960, 540)" opacity="0.1">
        <path d="M-50,-20 L-40,-30 L40,-30 L50,-20 L50,20 L-50,20 Z" fill="white"/>
        <circle cx="-30" cy="20" r="8" fill="white"/>
        <circle cx="30" cy="20" r="8" fill="white"/>
        <rect x="-35" y="-25" width="15" height="10" fill="rgba(30,58,138,0.5)"/>
        <rect x="-15" y="-25" width="30" height="10" fill="rgba(30,58,138,0.5)"/>
        <rect x="20" y="-25" width="15" height="10" fill="rgba(30,58,138,0.5)"/>
    </g>
</svg>
