<!-- QR Camera Icon -->
<svg width="100" height="100" viewBox="0 0 100 100" xmlns="http://www.w3.org/2000/svg">
    <defs>
        <linearGradient id="qrGradient" x1="0%" y1="0%" x2="100%" y2="100%">
            <stop offset="0%" style="stop-color:#8b5cf6;stop-opacity:1" />
            <stop offset="100%" style="stop-color:#6d28d9;stop-opacity:1" />
        </linearGradient>
    </defs>
    
    <rect x="10" y="10" width="80" height="80" rx="15" fill="url(#qrGradient)"/>
    
    <!-- Camera body -->
    <rect x="20" y="35" width="60" height="40" rx="8" fill="white"/>
    <circle cx="50" cy="55" r="12" fill="#8b5cf6"/>
    <circle cx="50" cy="55" r="8" fill="white"/>
    
    <!-- Camera lens -->
    <circle cx="50" cy="55" r="6" fill="#6d28d9"/>
    <circle cx="48" cy="53" r="2" fill="white" opacity="0.5"/>
    
    <!-- QR code -->
    <rect x="25" y="20" width="20" height="20" rx="2" fill="white"/>
    <!-- QR pattern -->
    <rect x="27" y="22" width="4" height="4" fill="#8b5cf6"/>
    <rect x="33" y="22" width="4" height="4" fill="#8b5cf6"/>
    <rect x="39" y="22" width="4" height="4" fill="#8b5cf6"/>
    <rect x="27" y="28" width="4" height="4" fill="#8b5cf6"/>
    <rect x="39" y="28" width="4" height="4" fill="#8b5cf6"/>
    <rect x="27" y="34" width="4" height="4" fill="#8b5cf6"/>
    <rect x="33" y="34" width="4" height="4" fill="#8b5cf6"/>
    <rect x="39" y="34" width="4" height="4" fill="#8b5cf6"/>
    
    <!-- Flash -->
    <ellipse cx="65" cy="40" rx="3" ry="2" fill="#f59e0b"/>
    
    <!-- Viewfinder corners -->
    <path d="M30 45 L30 40 L35 40" stroke="#8b5cf6" stroke-width="2" fill="none"/>
    <path d="M70 45 L70 40 L65 40" stroke="#8b5cf6" stroke-width="2" fill="none"/>
    <path d="M30 65 L30 70 L35 70" stroke="#8b5cf6" stroke-width="2" fill="none"/>
    <path d="M70 65 L70 70 L65 70" stroke="#8b5cf6" stroke-width="2" fill="none"/>
</svg>
